<svg xmlns="http://www.w3.org/2000/svg" width="1400" height="900" viewBox="0 0 1400 900" fill="none" role="img" aria-label="Productivity illustration">
  <defs>
    <linearGradient id="bg" x1="40" y1="60" x2="1320" y2="860" gradientUnits="userSpaceOnUse">
      <stop offset="0" stop-color="#1f6bff"/>
      <stop offset="1" stop-color="#4f46e5"/>
    </linearGradient>
    <linearGradient id="card" x1="0" y1="0" x2="0" y2="1">
      <stop offset="0" stop-color="#ffffff" stop-opacity="0.94"/>
      <stop offset="1" stop-color="#dbe7ff" stop-opacity="0.94"/>
    </linearGradient>
    <linearGradient id="chip" x1="0" y1="0" x2="1" y2="1">
      <stop offset="0" stop-color="#2563eb"/>
      <stop offset="1" stop-color="#1d4ed8"/>
    </linearGradient>
  </defs>

  <rect width="1400" height="900" fill="url(#bg)"/>
  <circle cx="1240" cy="140" r="190" fill="#ffffff" fill-opacity="0.12"/>
  <circle cx="1160" cy="820" r="250" fill="#ffffff" fill-opacity="0.08"/>
  <circle cx="120" cy="760" r="180" fill="#ffffff" fill-opacity="0.1"/>

  <rect x="160" y="140" width="1080" height="620" rx="44" fill="#091a4a" fill-opacity="0.36" stroke="#b7ccff" stroke-opacity="0.35" stroke-width="2"/>
  <rect x="220" y="210" width="430" height="480" rx="26" fill="url(#card)"/>
  <rect x="700" y="210" width="430" height="220" rx="26" fill="url(#card)"/>
  <rect x="700" y="470" width="430" height="220" rx="26" fill="url(#card)"/>

  <rect x="262" y="262" width="172" height="36" rx="18" fill="url(#chip)"/>
  <text x="348" y="286" text-anchor="middle" font-family="Segoe UI, Arial, sans-serif" font-size="18" font-weight="700" fill="#ffffff">Today</text>

  <rect x="262" y="322" width="346" height="26" rx="13" fill="#7ea0f7"/>
  <rect x="262" y="364" width="306" height="18" rx="9" fill="#a4bbf9"/>
  <rect x="262" y="400" width="276" height="18" rx="9" fill="#a4bbf9"/>

  <rect x="262" y="448" width="312" height="78" rx="14" fill="#eef4ff" stroke="#c5d6fb"/>
  <rect x="286" y="474" width="20" height="20" rx="6" fill="#22c55e"/>
  <path d="M291 484L297 490L307 478" stroke="#ffffff" stroke-width="2.5" stroke-linecap="round" stroke-linejoin="round"/>
  <rect x="320" y="478" width="220" height="12" rx="6" fill="#7b96db"/>
  <rect x="320" y="498" width="150" height="10" rx="5" fill="#a7bbec"/>

  <rect x="744" y="260" width="342" height="14" rx="7" fill="#7b96db"/>
  <rect x="744" y="288" width="282" height="12" rx="6" fill="#a7bbec"/>
  <rect x="744" y="314" width="202" height="12" rx="6" fill="#a7bbec"/>

  <rect x="744" y="520" width="180" height="120" rx="16" fill="#e9f0ff" stroke="#c5d6fb"/>
  <path d="M786 596L828 560L864 582L908 536" stroke="#2563eb" stroke-width="8" stroke-linecap="round" stroke-linejoin="round"/>
  <circle cx="786" cy="596" r="8" fill="#2563eb"/>
  <circle cx="828" cy="560" r="8" fill="#2563eb"/>
  <circle cx="864" cy="582" r="8" fill="#2563eb"/>
  <circle cx="908" cy="536" r="8" fill="#2563eb"/>

  <rect x="948" y="520" width="138" height="18" rx="9" fill="#7b96db"/>
  <rect x="948" y="550" width="118" height="12" rx="6" fill="#a7bbec"/>
  <rect x="948" y="574" width="128" height="12" rx="6" fill="#a7bbec"/>
  <rect x="948" y="598" width="106" height="12" rx="6" fill="#a7bbec"/>
</svg>
